<?xml version="1.0" encoding="UTF-8"?>
<svg id="Layer_1" data-name="Layer 1" xmlns="http://www.w3.org/2000/svg" viewBox="0 0 117.02 135.65">
  <defs>
    <style>
      .cls-1 {
        fill: #fc7303;
      }
    </style>
  </defs>
  <path class="cls-1" d="M101.62,93.65c-.96-2.69-3.82-10.62-6.36-17.63s-6.92-19.33-9.74-27.37c-2.83-8.04-7.05-20.02-9.39-26.62-2.34-6.6-5.01-14.19-5.94-16.87l-1.69-4.88-7.53-.21c-6.65-.18-7.59-.05-8.04,1.13-5.24,13.74-22.37,57.24-35.77,90.81C7.73,115.64.01,135.13.01,135.32h-.01c0,.18,1.4.33,3.1.33,2.56,0,4.02-.69,8.43-3.94,10.08-7.43,22.67-20.29,35.15-35.9,3.66-4.58,11.83-16.94,11.83-17.9,0-.42-2.08-.78-4.69-.82-2.57-.03-6.34-.29-8.36-.56l-3.68-.5,10.43-6.81c18.17-11.87,26.98-16.96,28.9-16.69,1.7.24,1.77.49,1.72,6.25-.05,5.56-4.29,35.57-5.48,38.79-.43,1.16-1.28.32-4.76-4.71l-4.24-6.13-4.36,6.92c-2.39,3.8-6.8,10.66-9.79,15.24-2.99,4.58-5.44,8.42-5.44,8.54s7.51.23,16.69.24l16.69.02,4.04,8.98,4.04,8.98h13.4c7.37,0,13.4-.27,13.4-.6s-3.08-8.68-6.83-18.56-7.61-20.16-8.57-22.84Z"/>
</svg>