<?xml version="1.0" encoding="UTF-8"?>
<svg xmlns="http://www.w3.org/2000/svg" viewBox="0 0 567.47 206.08">
  <defs>
    <style>
      .cls-1 {
        fill: #fc7303;
      }

      .cls-2 {
        fill: #20244c;
      }

      .cls-3 {
        fill: #777b89;
      }
    </style>
  </defs>
  <g id="Layer_2" data-name="Layer 2">
    <path id="path3" class="cls-3" d="M158.72,205.37c-9.71-1.99-14.76-11.4-11.73-21.83,1.67-5.74,4.96-9.95,9.66-12.37,3.2-1.64,5.23-2.09,10.69-2.34,8.92-.41,11.92.36,12.25,3.17.23,1.97.1,2.09-1.88,1.65-5.24-1.14-11.32-1.35-14.5-.5-5.03,1.35-9.36,6.17-10.51,11.67-2.37,11.42,3.33,17.91,14.51,16.51,4.54-.57,4.26-.17,5.39-7.64l.47-3.09-3.43-.51c-2.99-.45-3.43-.75-3.43-2.34,0-1.8.12-1.83,6.38-1.83,4.61,0,6.37.26,6.35.94-.01.52-.62,4.47-1.34,8.79l-1.31,7.85-3.12.9c-4.66,1.35-10.65,1.76-14.45.98h0ZM191.37,205.03c-7.37-2.62-9.19-11.78-3.92-19.67,2.97-4.44,7.73-6.46,13.64-5.79,8.04.92,11.25,4.07,11.12,10.9-.15,7.39-4.35,13-11.11,14.85-3.9,1.07-6.09,1-9.72-.3h0ZM202.07,200.4c4.69-2.93,6.39-11.85,2.88-15.14-3.67-3.45-10.08-2.57-12.93,1.77-5.93,9.05,1.38,18.78,10.04,13.37h0ZM236.34,205.79c-.41-.14-1.93-.46-3.38-.7-3.98-.68-4.68-1.34-3.82-3.61l.74-1.94,3.6,1.11c5.18,1.6,11.69,1.04,14.09-1.23,2.46-2.31,2.48-5.43.04-7.35-1.02-.8-3.91-2.22-6.43-3.17-8.2-3.07-11.01-7.74-8.31-13.84,1.89-4.28,6.17-6.4,12.89-6.4,2.65,0,6.11.36,7.68.8,2.33.65,2.82,1.1,2.62,2.43-.18,1.26-.66,1.59-2.11,1.41-1.03-.13-4.29-.3-7.25-.38-4.76-.13-5.6.06-7.31,1.68-2.41,2.26-2.52,5.28-.25,7.29.93.82,3.97,2.44,6.76,3.59,6.46,2.67,8.81,5.32,8.81,9.94,0,2.94-.39,3.79-2.81,6.22-2.08,2.07-3.85,3.03-6.79,3.66-3.84.82-7.22,1.01-8.78.48h0ZM313.97,205.36c-2.76-1.13-4.46-3.72-4.48-6.79-.03-5.59,4.43-8.16,14.13-8.16h5.35v-2.53c0-1.44-.53-2.98-1.24-3.56-1.37-1.14-6.64-1.35-10.95-.44-2.65.56-2.81.49-2.81-1.24s.44-1.91,4.97-2.7c7.49-1.3,12.81.31,14.5,4.4.77,1.86.7,3.91-.42,11.66l-1.36,9.4h-2.47c-1.96,0-2.47-.31-2.47-1.47,0-1.46-.03-1.46-2.44-.04-3.05,1.8-7.85,2.48-10.31,1.47h0ZM322.82,201.36c2.72-1.41,4.42-3.4,5.05-5.89l.51-2.06h-4.16c-4.39,0-7.97,1-8.92,2.48-1.08,1.7-.58,4.19,1.08,5.35,2.06,1.44,3.81,1.48,6.43.12h0ZM369.47,205.69c-5.55-1.95-6.31-3.96-4.85-12.85,1.53-9.36,1.56-9.18-1.6-9.18-2.16,0-2.61-.24-2.25-1.19.25-.65.46-1.48.46-1.83s1.27-.75,2.81-.88c2.58-.21,2.84-.45,3.19-2.86.33-2.34.65-2.65,2.89-2.87l2.51-.24-.52,3.05-.52,3.05h3.82c3.57,0,3.82.12,3.82,1.87s-.23,1.87-4.06,1.87h-4.06l-.84,5.06c-1.79,10.74-1.15,12.94,3.8,12.94,2.38,0,2.91.27,2.91,1.46,0,.8-.26,1.61-.57,1.81-1.04.64-5.79,1.17-6.93.77h0ZM390.08,205.5c-9.28-2.37-11.61-14.52-4.2-21.93,4.36-4.36,10.11-5.45,15.6-2.95,3.95,1.79,5.65,4.86,5.34,9.64l-.23,3.52h-19.5l.21,2.25c.34,3.59,3.25,5.62,8.03,5.62,2.22,0,4.87-.32,5.88-.7,2.25-.86,2.64-.54,2.19,1.78-.2,1.04-1.02,1.96-1.96,2.19-3.4.83-9.21,1.12-11.38.57h0ZM402.19,187.97c-1.13-5.86-8.49-6.9-12.64-1.79-.71.88-1.3,2.19-1.31,2.91-.01,1.16.82,1.31,7.2,1.31h7.22l-.47-2.44ZM260.28,203.77c.2-.95,1.12-6.25,2.05-11.76.93-5.52,2.12-10.46,2.65-11,1.17-1.17,3.99-.58,3.99.84,0,.77.59.67,2.44-.41,4.26-2.48,10.33-2.33,12.98.32l1.85,1.85,2.57-1.74c5.67-3.85,12.99-2.86,15.03,2.03.91,2.19.91,3.5-.03,9.59-2.02,13.1-1.57,11.93-4.55,11.93-2.49,0-2.63-.12-2.23-2.06.23-1.13.95-5.22,1.6-9.08,1.05-6.22,1.05-7.21.06-8.72-2.22-3.39-8.72-2.61-11.32,1.36-.68,1.03-1.72,5.19-2.32,9.25-1.39,9.38-1.33,9.25-4.14,9.25s-2.65.82-.57-12.6c1.07-6.92.7-8.25-2.59-9.35-2.67-.89-7.15,1.3-8.86,4.33-.7,1.24-1.73,5.62-2.3,9.75l-1.03,7.5-2.81.23c-2.59.22-2.78.1-2.45-1.5h0ZM339.47,204.47c0-.51.92-6.08,2.04-12.37l2.04-11.44h2.39c2.04,0,2.33.23,1.99,1.53-.38,1.46-.24,1.45,3.18-.38,1.97-1.05,4.57-1.9,5.77-1.9,1.81,0,2.15.28,1.95,1.61-.18,1.24-1.1,1.83-3.96,2.55-2.39.61-4.44,1.74-5.72,3.17-1.94,2.17-2.27,3.38-4.07,14.98-.47,3.03-.62,3.19-3.05,3.19-1.54,0-2.56-.37-2.56-.94h0ZM411.48,204.1c0-.72.85-6.04,1.87-11.81,1.02-5.78,1.86-10.75,1.86-11.06,0-.31,1.15-.56,2.56-.56,2.2,0,2.5.21,2.15,1.53-.38,1.46-.24,1.45,3.18-.38,4.16-2.21,8.29-2.6,7.56-.72-.25.65-.46,1.45-.46,1.78s-1.39.82-3.1,1.09c-2.06.33-3.91,1.31-5.52,2.91-2.45,2.45-2.6,2.95-4.52,15.35-.47,3.03-.62,3.19-3.05,3.19-1.94,0-2.56-.32-2.55-1.31h0ZM88.78,65.35,0,50.53c0-4.54.13-6.3.27-3.91.15,2.39.15,6.1,0,8.25C.12,57.02,0,55.07,0,50.53h0Z"/>
  </g>
  <g id="svg1">
    <path id="path2" class="cls-1" d="M304.97,135.32c0-.19,7.72-19.68,17.15-43.31,13.4-33.57,30.53-77.07,35.77-90.81.45-1.18,1.39-1.31,8.04-1.13l7.53.21,1.69,4.88c.93,2.68,3.6,10.27,5.94,16.87s6.56,18.58,9.39,26.62c2.82,8.04,7.2,20.36,9.74,27.37s5.4,14.94,6.36,17.63c.96,2.68,4.82,12.96,8.57,22.84,3.75,9.88,6.83,18.23,6.83,18.56s-6.03.6-13.4.6h-13.4l-4.04-8.98-4.04-8.98-16.69-.02c-9.18-.01-16.69-.12-16.69-.24s2.45-3.96,5.44-8.54c2.99-4.58,7.4-11.44,9.79-15.24l4.36-6.92,4.24,6.13c3.48,5.03,4.33,5.87,4.76,4.71,1.19-3.22,5.43-33.23,5.48-38.79.05-5.76-.02-6.01-1.72-6.25-1.92-.27-10.73,4.82-28.9,16.69l-10.43,6.81,3.68.5c2.02.27,5.79.53,8.36.56,2.61.04,4.69.4,4.69.82,0,.96-8.17,13.32-11.83,17.9-12.48,15.61-25.07,28.47-35.15,35.9-4.41,3.25-5.87,3.94-8.43,3.94-1.7,0-3.1-.15-3.1-.34h0ZM433.71,132.79c-1.13-1.24-1.24-5.51-1.24-45.75v-44.38h23.25v76.5h42v15h-31.38c-29.45,0-31.46-.08-32.62-1.37h0ZM514.97,96.3v-37.86l-14.06-.2-14.06-.2-.21-7.69-.21-7.69h81.05v15.75h-29.25v75.75h-23.25v-37.86Z"/>
    <path id="path1" class="cls-2" d="M26.72,96.28v-37.87H.47v-15.76l37.69.19,37.69.19v15l-13.23.2c-12.97.2-13.24.24-13.68,1.87-.25.92-.45,17.95-.46,37.86v36.19h-21.76v-37.87ZM88.97,88.34v-45.86l24.56.37c26.92.4,31.8,1.08,40.01,5.55,4.35,2.37,9.64,7.77,11.85,12.12,4.92,9.64,2.88,24.62-4.43,32.62-1.99,2.18-5.42,4.92-7.62,6.1-2.2,1.18-4.1,2.21-4.21,2.3-.11.08,3.9,6.19,8.91,13.57,5.02,7.38,9.92,14.69,10.9,16.23l1.78,2.81h-23.8l-9.59-15-9.59-15h-17l-.2,14.81-.2,14.81-10.69.21-10.69.21v-45.86ZM137.72,88.86c5.34-2.8,7.68-5.94,8.52-11.47.77-5.04-.75-10.39-3.91-13.69-3.98-4.17-8.46-5.29-21.22-5.29h-10.33l-.22,15.81c-.12,8.7-.05,15.99.16,16.19.21.21,5.78.25,12.37.1,9.81-.23,12.48-.53,14.62-1.66h0ZM184.97,88.41v-45.75h22.5v91.5h-22.5v-45.75ZM226.97,88.32v-45.84l24.19.39c26.45.43,30.73.97,39.27,4.97,9.67,4.53,15.03,12.56,15.81,23.72.36,5.06.14,7.12-1.22,11.6-2.71,8.92-6.62,13.74-14.32,17.64-6.84,3.47-11.46,4.28-26.98,4.78-10.87.35-14.65.7-14.72,1.4-.05.52-.14,6.84-.19,14.06l-.09,13.12h-21.75v-45.84ZM276.84,88.72c7.22-3.77,10.01-13.59,6.12-21.47-3.53-7.14-8.02-8.83-23.55-8.83h-10.69s0,15.62,0,15.62c0,8.59.25,15.88.56,16.19.31.31,5.96.45,12.56.31,10.41-.22,12.4-.46,15-1.82h0Z"/>
  </g>
</svg>